<svg width="40" height="40" viewBox="0 0 40 40" fill="none" xmlns="http://www.w3.org/2000/svg">
<g clip-path="url(#clip0_2162_542)">
<path d="M14.6159 7.09104C13.2327 7.1563 12.2882 7.37704 11.4624 7.70152C10.6078 8.03458 9.88342 8.48152 9.1627 9.20484C8.44198 9.92816 7.99816 10.653 7.66744 11.509C7.34738 12.3365 7.13054 13.2819 7.06944 14.6659C7.00834 16.0499 6.99482 16.4947 7.00158 20.025C7.00834 23.5553 7.02394 23.9978 7.09102 25.3846C7.15706 26.7676 7.37702 27.7119 7.7015 28.5379C8.03508 29.3925 8.4815 30.1166 9.20508 30.8376C9.92866 31.5586 10.653 32.0014 11.511 32.3326C12.3378 32.6522 13.2834 32.87 14.6672 32.9306C16.0509 32.9912 16.4963 33.0052 20.0255 32.9985C23.5547 32.9917 23.9991 32.9761 25.3857 32.9103C26.7722 32.8446 27.7116 32.623 28.5379 32.3001C29.3925 31.9658 30.1171 31.5201 30.8376 30.7963C31.5581 30.0724 32.0016 29.347 32.3321 28.4906C32.6524 27.6638 32.87 26.7182 32.9301 25.3355C32.9907 23.9479 33.005 23.5048 32.9982 19.9751C32.9914 16.4453 32.9756 16.0028 32.9098 14.6165C32.844 13.2302 32.6238 12.2887 32.2996 11.4622C31.9655 10.6075 31.5196 9.88396 30.7963 9.16246C30.0729 8.44096 29.347 7.99766 28.4908 7.66798C27.6635 7.34792 26.7184 7.12978 25.3347 7.06998C23.951 7.01018 23.5056 6.99484 19.9751 7.0016C16.4445 7.00836 16.0025 7.02344 14.6159 7.09104ZM14.7678 30.5919C13.5003 30.5368 12.8121 30.3262 12.3534 30.1499C11.7461 29.9159 11.3134 29.633 10.8563 29.1804C10.3993 28.7277 10.1185 28.2935 9.88134 27.6875C9.70324 27.2288 9.48874 26.5414 9.42946 25.2739C9.36498 23.9039 9.35146 23.4926 9.34392 20.0219C9.33638 16.5511 9.34964 16.1403 9.4097 14.7699C9.46378 13.5034 9.67568 12.8144 9.8517 12.356C10.0857 11.7479 10.3675 11.316 10.8212 10.8592C11.2749 10.4024 11.7078 10.1211 12.3144 9.88396C12.7725 9.70508 13.46 9.4924 14.727 9.43208C16.0979 9.36708 16.5087 9.35408 19.979 9.34654C23.4492 9.339 23.861 9.352 25.2325 9.41232C26.499 9.46744 27.1882 9.67726 27.6461 9.85432C28.2537 10.0883 28.6861 10.3694 29.1429 10.8239C29.5997 11.2783 29.8813 11.7097 30.1184 12.3176C30.2976 12.7744 30.5103 13.4616 30.5701 14.7293C30.6353 16.1003 30.6501 16.5114 30.6564 19.9813C30.6626 23.4513 30.6504 23.8634 30.5903 25.2333C30.535 26.5008 30.3249 27.1893 30.1483 27.6485C29.9143 28.2556 29.6322 28.6885 29.1783 29.145C28.7243 29.6016 28.2919 29.8829 27.6851 30.12C27.2275 30.2986 26.5393 30.5118 25.2733 30.5722C23.9024 30.6366 23.4916 30.6502 20.02 30.6577C16.5485 30.6652 16.139 30.6512 14.768 30.5919M25.3656 13.0521C25.3662 13.3606 25.4582 13.6621 25.63 13.9184C25.8019 14.1746 26.0459 14.3742 26.3312 14.4918C26.6165 14.6093 26.9302 14.6397 27.2327 14.5789C27.5352 14.5182 27.813 14.3691 28.0307 14.1505C28.2485 13.9319 28.3966 13.6537 28.4562 13.3509C28.5159 13.0482 28.4844 12.7346 28.3657 12.4497C28.2471 12.1649 28.0467 11.9216 27.7898 11.7507C27.5329 11.5797 27.2311 11.4888 26.9225 11.4895C26.5089 11.4903 26.1125 11.6554 25.8205 11.9484C25.5286 12.2414 25.365 12.6384 25.3656 13.0521ZM13.325 20.013C13.3323 23.6998 16.3265 26.6818 20.0125 26.6748C23.6985 26.6677 26.6825 23.6738 26.6755 19.987C26.6685 16.3002 23.6736 13.3175 19.987 13.3248C16.3005 13.3321 13.318 16.3268 13.325 20.013ZM15.6666 20.0084C15.6649 19.1513 15.9174 18.313 16.3921 17.5994C16.8669 16.8858 17.5426 16.3291 18.3338 15.9995C19.1249 15.67 19.9961 15.5824 20.837 15.748C21.6779 15.9135 22.4509 16.3247 23.0581 16.9295C23.6654 17.5344 24.0796 18.3057 24.2485 19.146C24.4174 19.9862 24.3333 20.8577 24.0068 21.6502C23.6804 22.4427 23.1263 23.1205 22.4147 23.5981C21.703 24.0757 20.8657 24.3315 20.0086 24.3332C19.4395 24.3344 18.8758 24.2235 18.3495 24.0068C17.8233 23.7901 17.3449 23.4718 16.9417 23.0702C16.5385 22.6686 16.2184 22.1915 15.9996 21.6661C15.7808 21.1408 15.6677 20.5775 15.6666 20.0084Z" fill="black"/>
</g>
<defs>
<clipPath id="clip0_2162_542">
<rect width="26" height="26" fill="white" transform="translate(7 7)"/>
</clipPath>
</defs>
</svg>
