<svg width="40" height="40" viewBox="0 0 40 40" fill="none" xmlns="http://www.w3.org/2000/svg">
<path d="M33.8999 26.1696C33.7053 25.6402 33.3347 25.3569 32.9127 25.1223C32.8333 25.0758 32.7603 25.0386 32.698 25.01C32.5721 24.9449 32.4434 24.8819 32.3153 24.8154C30.9997 24.1179 29.9724 23.2379 29.2599 22.1949C29.0575 21.9013 28.882 21.59 28.7355 21.2649C28.6747 21.091 28.6775 20.9923 28.7212 20.9022C28.7645 20.8327 28.8217 20.773 28.8893 20.7269C29.1154 20.5774 29.3486 20.4257 29.5067 20.3234C29.7886 20.141 30.0118 19.9965 30.1555 19.8942C30.6957 19.5165 31.0734 19.1151 31.3095 18.6666C31.4742 18.3567 31.5702 18.0149 31.5911 17.6646C31.612 17.3143 31.5571 16.9636 31.4304 16.6363C31.0727 15.6949 30.1834 15.1104 29.1061 15.1104C28.8788 15.1102 28.6522 15.1341 28.43 15.1819C28.3706 15.1948 28.3113 15.2084 28.2533 15.2234C28.2633 14.5796 28.249 13.8999 28.1918 13.231C27.9886 10.8796 27.1652 9.64694 26.3067 8.66399C25.757 8.04804 25.1095 7.52692 24.3902 7.12161C23.0875 6.3776 21.6102 5.99988 19.9999 5.99988C18.3895 5.99988 16.9194 6.3776 15.6152 7.12161C14.8942 7.52704 14.2454 8.0492 13.6951 8.66685C12.8367 9.6498 12.0132 10.8846 11.8101 13.2339C11.7528 13.9028 11.7385 14.586 11.7478 15.2263C11.6899 15.2112 11.6312 15.1977 11.5718 15.1848C11.3497 15.137 11.123 15.113 10.8958 15.1132C9.81771 15.1132 8.92704 15.6977 8.57078 16.6392C8.44344 16.9666 8.38807 17.3175 8.40844 17.6682C8.4288 18.0189 8.52443 18.3611 8.68882 18.6716C8.92561 19.1201 9.30334 19.5215 9.84346 19.8992C9.98654 19.9994 10.2105 20.1439 10.4923 20.3284C10.6447 20.4272 10.8672 20.5717 11.0854 20.7162C11.1617 20.7655 11.2266 20.8307 11.2757 20.9072C11.3215 21.0009 11.3229 21.1018 11.2549 21.2878C11.1104 21.606 10.9378 21.9108 10.7391 22.1985C10.0423 23.2179 9.04508 24.0821 7.77169 24.7739C7.09708 25.1316 6.39599 25.3705 6.09982 26.1753C5.87662 26.7827 6.02256 27.4738 6.58986 28.0561C6.79807 28.2734 7.03956 28.4562 7.30525 28.5976C7.8581 28.9015 8.44597 29.1367 9.05581 29.298C9.18166 29.3305 9.30114 29.3839 9.40922 29.4561C9.61597 29.6371 9.58663 29.9097 9.86206 30.3088C10.0003 30.5152 10.176 30.6937 10.38 30.8354C10.958 31.2346 11.6076 31.2596 12.2958 31.2861C12.9175 31.3097 13.6222 31.3369 14.427 31.6023C14.7603 31.7124 15.1066 31.9256 15.5079 32.1746C16.4716 32.7669 17.7907 33.5775 19.9984 33.5775C22.2061 33.5775 23.5346 32.7626 24.5054 32.1681C24.9039 31.9235 25.248 31.7124 25.572 31.6051C26.3769 31.339 27.0815 31.3125 27.7032 31.2889C28.3914 31.2625 29.041 31.2374 29.619 30.8382C29.8606 30.6698 30.0619 30.4499 30.2085 30.1944C30.4066 29.8574 30.4016 29.6221 30.5876 29.4575C30.689 29.3888 30.8012 29.3375 30.9196 29.3059C31.5378 29.144 32.1336 28.9066 32.6938 28.5991C32.976 28.4476 33.2301 28.2487 33.4449 28.011L33.4521 28.0024C33.9843 27.433 34.1181 26.7619 33.8999 26.1696ZM31.9376 27.2241C30.7407 27.8851 29.9452 27.8143 29.3264 28.2128C28.8006 28.5511 29.1118 29.2808 28.7298 29.5441C28.2605 29.8682 26.8733 29.5212 25.0813 30.1128C23.6033 30.6014 22.6604 32.0065 20.002 32.0065C17.3436 32.0065 16.4229 30.6043 14.9206 30.1093C13.1321 29.5176 11.7421 29.8646 11.2721 29.5405C10.8908 29.2773 11.2006 28.5476 10.6755 28.2092C10.0559 27.8107 9.26042 27.8815 8.06428 27.2241C7.30239 26.8034 7.73449 26.543 7.98845 26.42C12.3237 24.321 13.0155 21.0803 13.0463 20.8399C13.0835 20.5488 13.125 20.3199 12.8045 20.0237C12.4947 19.7375 11.1204 18.8869 10.7391 18.6208C10.1082 18.1801 9.83058 17.7402 10.0352 17.1993C10.1783 16.8252 10.5274 16.6842 10.8937 16.6842C11.0094 16.6846 11.1248 16.6975 11.2378 16.7229C11.9303 16.8731 12.6027 17.2201 12.9912 17.3138C13.038 17.3258 13.086 17.3323 13.1343 17.3331C13.3417 17.3331 13.4147 17.2287 13.4004 16.9911C13.356 16.2335 13.2487 14.757 13.3682 13.377C13.532 11.4783 14.1437 10.5376 14.8705 9.7056C15.2196 9.3057 16.86 7.57231 19.997 7.57231C23.134 7.57231 24.7787 9.29854 25.1278 9.69702C25.8553 10.529 26.4677 11.4698 26.6301 13.3684C26.7496 14.7484 26.6466 16.2257 26.5979 16.9826C26.5815 17.2322 26.6566 17.3245 26.864 17.3245C26.9123 17.3237 26.9603 17.3173 27.0071 17.3052C27.3963 17.2115 28.0688 16.8645 28.7612 16.7143C28.8742 16.689 28.9896 16.676 29.1054 16.6757C29.4738 16.6757 29.8207 16.8187 29.9638 17.1907C30.1684 17.7316 29.8923 18.1715 29.2606 18.6122C28.8793 18.8783 27.505 19.7282 27.1953 20.0151C26.874 20.3113 26.9163 20.5402 26.9535 20.8314C26.9842 21.0753 27.6753 24.316 32.0113 26.4114C32.2674 26.5395 32.6995 26.7999 31.9376 27.2241Z" fill="black"/>
</svg>
