<svg width="40" height="40" viewBox="0 0 40 40" fill="none" xmlns="http://www.w3.org/2000/svg">
<g clip-path="url(#clip0_2162_563)">
<path d="M27.2868 12.2115C25.8864 11.2982 24.8753 9.83737 24.5602 8.13434C24.492 7.76621 24.4547 7.38766 24.4547 7H19.9846L19.9772 24.9142C19.9021 26.9202 18.2512 28.5304 16.2269 28.5304C15.5979 28.5304 15.0053 28.3732 14.4839 28.0984C13.288 27.4689 12.4696 26.2152 12.4696 24.7727C12.4696 22.7006 14.1553 21.015 16.2269 21.015C16.6137 21.015 16.9844 21.0788 17.3356 21.1886V16.6252C16.9723 16.5757 16.6033 16.5449 16.2269 16.5449C11.6908 16.5453 8 20.2362 8 24.7727C8 27.5562 9.3909 30.0194 11.5124 31.5088C12.8486 32.4469 14.4744 33 16.2273 33C20.7638 33 24.4547 29.3092 24.4547 24.7727V15.6888C26.2076 16.9473 28.3556 17.6888 30.6734 17.6888V13.2187C29.4249 13.2187 28.2619 12.8475 27.2868 12.2115Z" fill="black"/>
</g>
<defs>
<clipPath id="clip0_2162_563">
<rect width="22.6734" height="26" fill="white" transform="translate(8 7)"/>
</clipPath>
</defs>
</svg>
